<svg width="64" height="64" viewBox="0 0 64 64" fill="none" xmlns="http://www.w3.org/2000/svg">
<path d="M42.2857 32C42.2857 37.6806 37.6806 42.2857 32 42.2857C26.3194 42.2857 21.7143 37.6806 21.7143 32C21.7143 26.3194 26.3194 21.7143 32 21.7143C37.6806 21.7143 42.2857 26.3194 42.2857 32ZM42.2857 32V35.4286C42.2857 39.2157 45.3558 42.2857 49.1429 42.2857C51.5756 42.2857 53.7124 41.0189 54.9297 39.1089C55.6074 38.0456 56 36.7829 56 35.4286V32C56 24.4606 52.5236 17.7332 47.0862 13.3333M32 8C18.7452 8 8 18.7452 8 32C8 45.2548 18.7452 56 32 56C37.0991 56 41.8269 54.4098 45.7143 51.6982" stroke="#001A72" stroke-width="1.5" stroke-linecap="round" stroke-linejoin="round"/>
</svg>
