<svg width="64" height="64" viewBox="0 0 64 64" fill="none" xmlns="http://www.w3.org/2000/svg">
<path d="M10.6667 53.3333C9.19391 53.3333 8 52.1394 8 50.6667V26.6667C8 25.1939 9.19391 24 10.6667 24H42.6667C44.1394 24 45.3333 25.1939 45.3333 26.6667V50.6667C45.3333 52.1394 44.1394 53.3333 42.6667 53.3333H21.3333M29.3333 8C27.8606 8 26.6667 9.19391 26.6667 10.6667V24M53.3333 32C54.8061 32 56 30.8061 56 29.3333V10.6667C56 9.19391 54.8061 8 53.3333 8H40M8 32H45.1464M56 16H26.6667" stroke="#001A72" stroke-width="1.5" stroke-linecap="round" stroke-linejoin="round"/>
</svg>
