<svg width="64" height="64" viewBox="0 0 64 64" fill="none" xmlns="http://www.w3.org/2000/svg">
<path d="M48 25.3333V38.6666M16 25.3333V38.6666M48 18.6666H53.3333C54.8061 18.6666 56 19.8605 56 21.3333V42.6666C56 44.1394 54.8061 45.3333 53.3333 45.3333H26.6667M37.3333 18.6666H10.6667C9.19391 18.6666 8 19.8605 8 21.3333V42.6666C8 44.1394 9.19391 45.3333 10.6667 45.3333H16M38.6667 32C38.6667 35.6819 35.6819 38.6666 32 38.6666C28.3181 38.6666 25.3333 35.6819 25.3333 32C25.3333 28.3181 28.3181 25.3333 32 25.3333C35.6819 25.3333 38.6667 28.3181 38.6667 32Z" stroke="#001A72" stroke-width="1.5" stroke-linecap="round" stroke-linejoin="round"/>
</svg>
