<svg width="64" height="64" viewBox="0 0 64 64" fill="none" xmlns="http://www.w3.org/2000/svg">
<path d="M50.7372 55.9812C53.526 56.2327 56.0097 53.9261 55.9985 51.1638V43.9378C56.0279 42.7565 55.6212 41.6057 54.8558 40.7041C52.6974 38.1617 45.2947 36.5354 42.3603 37.16C40.0729 37.6468 38.4726 39.9435 36.908 41.505C33.646 39.6538 30.6868 37.3467 28.1137 34.6667M22.4273 27.0529C23.9919 25.4914 26.2931 23.8943 26.781 21.6114C27.4058 18.6874 25.7818 11.332 23.257 9.16491C22.3689 8.40267 21.2334 7.98873 20.0621 8.00023H12.8217C10.063 8.00283 7.76779 10.4772 8.01896 13.2512C8.00229 34.4102 22.6202 51.5993 42.6666 55.2603" stroke="#070707" stroke-width="1.5" stroke-linecap="round" stroke-linejoin="round"/>
</svg>
