<svg width="64" height="64" viewBox="0 0 64 64" fill="none" xmlns="http://www.w3.org/2000/svg">
<path d="M40.8417 44.4208L29.3333 38.6667M23.1584 28.4208L34.6667 22.6667M56 48C56 52.4183 52.4183 56 48 56C43.5817 56 40 52.4183 40 48C40 43.5817 43.5817 40 48 40C52.4183 40 56 43.5817 56 48ZM56 16C56 20.4183 52.4183 24 48 24C43.5817 24 40 20.4183 40 16C40 11.5817 43.5817 8 48 8C52.4183 8 56 11.5817 56 16ZM24 32C24 36.4183 20.4183 40 16 40C11.5817 40 8 36.4183 8 32C8 27.5817 11.5817 24 16 24C20.4183 24 24 27.5817 24 32Z" stroke="#001A72" stroke-width="1.5" stroke-linecap="round" stroke-linejoin="round"/>
</svg>
